:FULLY-SPECIFIED
:FORCE-ALL-JOINTS-BE-3DOF
:DEGREES
162
root 8.30694 16.4093 -14.1821 7.42648 8.96455 -0.405516
lfemur -1.6894 7.61581 -14.3592
ltibia 42.2312 0 0
lfoot 4.08998 6.89092 0
ltoes -13.8729 0 0
rfemur -30.9826 2.06772 22.7963
rtibia 34.3039 0 0
rfoot -12.3235 -0.704489 0
rtoes -12.1536 0 0
lowerback -5.31379 -2.11466 -0.870637
upperback -1.72261 -2.81954 3.37634
thorax 1.44754 -1.40991 3.75425
lowerneck -18.5375 -6.61953 -14.7983
upperneck 15.5412 -7.99274 14.5732
head 9.16616 -3.22444 6.41961
lclavicle 4.16919e-014 -1.30044e-014 0
lhumerus -41.4478 -3.12833 91.3919
lradius 21.0836 0 0
lwrist -4.85585 0 0
lhand -6.4831 -20.0997 0
lfingers 7.12502 0 0
lthumb 19.3636 8.89704 0
rclavicle 4.16919e-014 -1.30044e-014 0
rhumerus -45.063 6.48865 -80.6791
rradius 33.2282 0 0
rwrist -18.266 0 0
rhand -30.2747 -26.5814 0
rfingers 7.12502 0 0
rthumb -3.58264 -56.5273 0
163
root 8.29929 16.4189 -14.0601 7.42529 8.81078 -0.478404
lfemur -3.02704 7.595 -14.5766
ltibia 42.7898 0 0
lfoot 3.30106 7.10101 0
ltoes -13.5695 0 0
rfemur -30.3668 2.15629 22.9907
rtibia 34.0425 0 0
rfoot -12.6477 -0.618083 0
rtoes -12.1896 0 0
lowerback -5.26639 -1.97234 -0.808645
upperback -1.73138 -2.63141 3.36904
thorax 1.39896 -1.31531 3.72328
lowerneck -18.3229 -6.63269 -14.8414
upperneck 15.443 -8.03423 14.6439
head 9.1075 -3.24932 6.4462
lclavicle 3.96952e-014 -1.31839e-014 0
lhumerus -41.768 -3.4619 91.6007
lradius 21.5385 0 0
lwrist -3.98162 0 0
lhand -6.86236 -20.2487 0
lfingers 7.12502 0 0
lthumb 18.9984 8.77742 0
rclavicle 3.96952e-014 -1.31839e-014 0
rhumerus -44.8229 6.57782 -80.563
rradius 33.7293 0 0
rwrist -18.4328 0 0
rhand -30.3815 -26.5741 0
rfingers 7.12502 0 0
rthumb -3.68574 -56.5177 0
164
root 8.29165 16.4284 -13.9382 7.42411 8.65702 -0.551292
lfemur -4.36468 7.57419 -14.7939
ltibia 43.3485 0 0
lfoot 2.51215 7.3111 0
ltoes -13.2662 0 0
rfemur -29.7511 2.24485 23.1851
rtibia 33.7811 0 0
rfoot -12.972 -0.531676 0
rtoes -12.2256 0 0
lowerback -5.21898 -1.83002 -0.746653
upperback -1.74016 -2.44327 3.36174
thorax 1.35038 -1.22071 3.6923
lowerneck -18.1084 -6.64584 -14.8845
upperneck 15.3447 -8.07572 14.7146
head 9.04883 -3.2742 6.4728
lclavicle 3.76986e-014 -1.33635e-014 0
lhumerus -42.0883 -3.79548 91.8094
lradius 21.9934 0 0
lwrist -3.10739 0 0
lhand -7.24162 -20.3977 0
lfingers 7.12502 0 0
lthumb 18.6332 8.6578 0
rclavicle 3.76986e-014 -1.33635e-014 0
rhumerus -44.5828 6.66699 -80.4468
rradius 34.2305 0 0
rwrist -18.5996 0 0
rhand -30.4882 -26.5667 0
rfingers 7.12502 0 0
rthumb -3.78883 -56.5082 0
165
root 8.284 16.438 -13.8163 7.42292 8.50325 -0.62418
lfemur -5.70233 7.55338 -15.0112
ltibia 43.9071 0 0
lfoot 1.72323 7.52118 0
ltoes -12.9628 0 0
rfemur -29.1353 2.33342 23.3795
rtibia 33.5197 0 0
rfoot -13.2962 -0.445269 0
rtoes -12.2616 0 0
lowerback -5.17157 -1.68771 -0.684661
upperback -1.74893 -2.25514 3.35443
thorax 1.3018 -1.12611 3.66133
lowerneck -17.8939 -6.659 -14.9275
upperneck 15.2465 -8.11721 14.7853
head 8.99016 -3.29908 6.4994
lclavicle 3.57019e-014 -1.3543e-014 0
lhumerus -42.4085 -4.12905 92.0181
lradius 22.4483 0 0
lwrist -2.23317 0 0
lhand -7.62088 -20.5467 0
lfingers 7.12502 0 0
lthumb 18.2681 8.53818 0
rclavicle 3.57019e-014 -1.3543e-014 0
rhumerus -44.3427 6.75617 -80.3307
rradius 34.7316 0 0
rwrist -18.7664 0 0
rhand -30.595 -26.5594 0
rfingers 7.12502 0 0
rthumb -3.89193 -56.4987 0
166
root 8.27635 16.4476 -13.6943 7.42173 8.34948 -0.697069
lfemur -7.03997 7.53256 -15.2286
ltibia 44.4657 0 0
lfoot 0.934306 7.73127 0
ltoes -12.6595 0 0
rfemur -28.5196 2.42199 23.5739
rtibia 33.2582 0 0
rfoot -13.6205 -0.358862 0
rtoes -12.2976 0 0
lowerback -5.12416 -1.54539 -0.622669
upperback -1.7577 -2.06701 3.34713
thorax 1.25322 -1.03151 3.63035
lowerneck -17.6794 -6.67216 -14.9706
upperneck 15.1482 -8.15871 14.856
head 8.93149 -3.32396 6.526
lclavicle 3.37052e-014 -1.37226e-014 0
lhumerus -42.7288 -4.46262 92.2269
lradius 22.9031 0 0
lwrist -1.35894 0 0
lhand -8.00014 -20.6957 0
lfingers 7.12502 0 0
lthumb 17.9029 8.41857 0
rclavicle 3.37052e-014 -1.37226e-014 0
rhumerus -44.1026 6.84534 -80.2146
rradius 35.2328 0 0
rwrist -18.9331 0 0
rhand -30.7018 -26.5521 0
rfingers 7.12502 0 0
rthumb -3.99502 -56.4892 0
167
root 8.2687 16.4572 -13.5724 7.42055 8.19572 -0.769957
lfemur -8.37762 7.51175 -15.4459
ltibia 45.0243 0 0
lfoot 0.145387 7.94136 0
ltoes -12.3561 0 0
rfemur -27.9038 2.51056 23.7683
rtibia 32.9968 0 0
rfoot -13.9447 -0.272455 0
rtoes -12.3336 0 0
lowerback -5.07675 -1.40308 -0.560677
upperback -1.76648 -1.87888 3.33982
thorax 1.20464 -0.936904 3.59938
lowerneck -17.4649 -6.68532 -15.0136
upperneck 15.05 -8.2002 14.9267
head 8.87282 -3.34884 6.5526
lclavicle 3.17086e-014 -1.39021e-014 0
lhumerus -43.049 -4.79619 92.4356
lradius 23.358 0 0
lwrist -0.484716 0 0
lhand -8.3794 -20.8447 0
lfingers 7.12502 0 0
lthumb 17.5377 8.29895 0
rclavicle 3.17086e-014 -1.39021e-014 0
rhumerus -43.8625 6.93451 -80.0984
rradius 35.7339 0 0
rwrist -19.0999 0 0
rhand -30.8085 -26.5448 0
rfingers 7.12502 0 0
rthumb -4.09812 -56.4797 0
168
root 8.26105 16.4668 -13.4504 7.41936 8.04195 -0.842845
lfemur -9.71526 7.49094 -15.6633
ltibia 45.5829 0 0
lfoot -0.643532 8.15145 0
ltoes -12.0528 0 0
rfemur -27.288 2.59913 23.9627
rtibia 32.7354 0 0
rfoot -14.2689 -0.186049 0
rtoes -12.3696 0 0
lowerback -5.02935 -1.26076 -0.498684
upperback -1.77525 -1.69075 3.33252
thorax 1.15606 -0.842303 3.56841
lowerneck -17.2503 -6.69848 -15.0567
upperneck 14.9518 -8.24169 14.9973
head 8.81416 -3.37372 6.57919
lclavicle 2.97119e-014 -1.40817e-014 0
lhumerus -43.3693 -5.12976 92.6444
lradius 23.8129 0 0
lwrist 0.38951 0 0
lhand -8.75866 -20.9937 0
lfingers 7.12502 0 0
lthumb 17.1725 8.17933 0
rclavicle 2.97119e-014 -1.40817e-014 0
rhumerus -43.6224 7.02368 -79.9823
rradius 36.2351 0 0
rwrist -19.2667 0 0
rhand -30.9153 -26.5375 0
rfingers 7.12502 0 0
rthumb -4.20121 -56.4701 0
169
root 8.2534 16.4763 -13.3285 7.41817 7.88818 -0.915733
lfemur -11.0529 7.47013 -15.8806
ltibia 46.1415 0 0
lfoot -1.43245 8.36153 0
ltoes -11.7495 0 0
rfemur -26.6723 2.68769 24.1571
rtibia 32.474 0 0
rfoot -14.5932 -0.0996419 0
rtoes -12.4056 0 0
lowerback -4.98194 -1.11844 -0.436692
upperback -1.78402 -1.50262 3.32522
thorax 1.10748 -0.747702 3.53743
lowerneck -17.0358 -6.71163 -15.0998
upperneck 14.8535 -8.28318 15.068
head 8.75549 -3.3986 6.60579
lclavicle 2.77153e-014 -1.42612e-014 0
lhumerus -43.6895 -5.46333 92.8531
lradius 24.2678 0 0
lwrist 1.26374 0 0
lhand -9.13792 -21.1427 0
lfingers 7.12502 0 0
lthumb 16.8074 8.05971 0
rclavicle 2.77153e-014 -1.42612e-014 0
rhumerus -43.3823 7.11286 -79.8662
rradius 36.7362 0 0
rwrist -19.4335 0 0
rhand -31.0221 -26.5302 0
rfingers 7.12502 0 0
rthumb -4.30431 -56.4606 0
170
root 8.24575 16.4859 -13.2066 7.41699 7.73442 -0.988621
lfemur -12.3905 7.44932 -16.0979
ltibia 46.7001 0 0
lfoot -2.22137 8.57162 0
ltoes -11.4461 0 0
rfemur -26.0565 2.77626 24.3515
rtibia 32.2126 0 0
rfoot -14.9174 -0.0132352 0
rtoes -12.4416 0 0
lowerback -4.93453 -0.976129 -0.3747
upperback -1.7928 -1.31449 3.31791
thorax 1.0589 -0.6531 3.50646
lowerneck -16.8213 -6.72479 -15.1428
upperneck 14.7553 -8.32468 15.1387
head 8.69682 -3.42348 6.63239
lclavicle 2.57186e-014 -1.44408e-014 0
lhumerus -44.0098 -5.7969 93.0618
lradius 24.7227 0 0
lwrist 2.13796 0 0
lhand -9.51718 -21.2917 0
lfingers 7.12502 0 0
lthumb 16.4422 7.94009 0
rclavicle 2.57186e-014 -1.44408e-014 0
rhumerus -43.1422 7.20203 -79.75
rradius 37.2374 0 0
rwrist -19.6002 0 0
rhand -31.1288 -26.5229 0
rfingers 7.12502 0 0
rthumb -4.4074 -56.4511 0
171
root 8.2381 16.4955 -13.0846 7.4158 7.58065 -1.06151
lfemur -13.7282 7.42851 -16.3153
ltibia 47.2587 0 0
lfoot -3.01029 8.78171 0
ltoes -11.1428 0 0
rfemur -25.4408 2.86483 24.5459
rtibia 31.9512 0 0
rfoot -15.2416 0.0731716 0
rtoes -12.4776 0 0
lowerback -4.88712 -0.833813 -0.312708
upperback -1.80157 -1.12636 3.31061
thorax 1.01032 -0.558499 3.47548
lowerneck -16.6068 -6.73795 -15.1859
upperneck 14.6571 -8.36617 15.2094
head 8.63815 -3.44836 6.65899
lclavicle 2.37219e-014 -1.46203e-014 0
lhumerus -44.33 -6.13047 93.2706
lradius 25.1776 0 0
lwrist 3.01219 0 0
lhand -9.89644 -21.4407 0
lfingers 7.12502 0 0
lthumb 16.077 7.82047 0
rclavicle 2.37219e-014 -1.46203e-014 0
rhumerus -42.9021 7.2912 -79.6339
rradius 37.7385 0 0
rwrist -19.767 0 0
rhand -31.2356 -26.5156 0
rfingers 7.12502 0 0
rthumb -4.5105 -56.4416 0
172
root 8.23045 16.5051 -12.9627 7.41461 7.42688 -1.1344
lfemur -15.0658 7.40769 -16.5326
ltibia 47.8173 0 0
lfoot -3.79921 8.99179 0
ltoes -10.8394 0 0
rfemur -24.825 2.9534 24.7404
rtibia 31.6897 0 0
rfoot -15.5659 0.159578 0
rtoes -12.5137 0 0
lowerback -4.83972 -0.691497 -0.250716
upperback -1.81034 -0.93823 3.3033
thorax 0.961741 -0.463897 3.44451
lowerneck -16.3922 -6.75111 -15.2289
upperneck 14.5588 -8.40766 15.2801
head 8.57949 -3.47323 6.68558
lclavicle 2.17253e-014 -1.47999e-014 0
lhumerus -44.6503 -6.46404 93.4793
lradius 25.6324 0 0
lwrist 3.88641 0 0
lhand -10.2757 -21.5896 0
lfingers 7.12502 0 0
lthumb 15.7119 7.70086 0
rclavicle 2.17253e-014 -1.47999e-014 0
rhumerus -42.6619 7.38038 -79.5178
rradius 38.2397 0 0
rwrist -19.9338 0 0
rhand -31.3424 -26.5083 0
rfingers 7.12502 0 0
rthumb -4.61359 -56.432 0
173
root 8.2228 16.5147 -12.8407 7.41342 7.27311 -1.20729
lfemur -16.4035 7.38688 -16.75
ltibia 48.3759 0 0
lfoot -4.58813 9.20188 0
ltoes -10.5361 0 0
rfemur -24.2093 3.04197 24.9348
rtibia 31.4283 0 0
rfoot -15.8901 0.245985 0
rtoes -12.5497 0 0
lowerback -4.79231 -0.549181 -0.188724
upperback -1.81911 -0.750099 3.296
thorax 0.913161 -0.369296 3.41353
lowerneck -16.1777 -6.76427 -15.272
upperneck 14.4606 -8.44915 15.3508
head 8.52082 -3.49811 6.71218
lclavicle 1.97286e-014 -1.49794e-014 0
lhumerus -44.9705 -6.79761 93.6881
lradius 26.0873 0 0
lwrist 4.76064 0 0
lhand -10.655 -21.7386 0
lfingers 7.12502 0 0
lthumb 15.3467 7.58124 0
rclavicle 1.97286e-014 -1.49794e-014 0
rhumerus -42.4218 7.46955 -79.4017
rradius 38.7408 0 0
rwrist -20.1006 0 0
rhand -31.4492 -26.501 0
rfingers 7.12502 0 0
rthumb -4.71669 -56.4225 0
